<svg width="24" height="24" xmlns="http://www.w3.org/2000/svg"><path d="M21 12c0-4.972-4.028-9-9-9s-9 4.028-9 9 4.028 9 9 9 9-4.028 9-9zm-9 7.839c-4.308 0-7.839-3.488-7.839-7.839 0-4.308 3.488-7.839 7.839-7.839 4.308 0 7.839 3.488 7.839 7.839 0 4.308-3.488 7.839-7.839 7.839zm-.454-3.357L7.37 12.308a.436.436 0 0 1 0-.616l4.177-4.174c.17-.17.447-.17.617 0l.25.25a.434.434 0 0 1-.007.621l-3.102 2.994h6.906c.24 0 .435.196.435.436v.362c0 .24-.196.436-.435.436H9.304l3.106 2.994c.174.17.178.45.007.62l-.25.25a.44.44 0 0 1-.62 0z"/></svg>