<svg width="24" height="24" viewBox="0 0 24 24" xmlns="http://www.w3.org/2000/svg"><title>arrow-right</title><path d="M21 12c0-4.972-4.028-9-9-9s-9 4.028-9 9 4.028 9 9 9 9-4.028 9-9zm-9 7.839c-4.308 0-7.839-3.488-7.839-7.839 0-4.308 3.488-7.839 7.839-7.839 4.308 0 7.839 3.488 7.839 7.839 0 4.308-3.488 7.839-7.839 7.839zm.34-3.357l4.177-4.174a.436.436 0 0 0 0-.616L12.34 7.518a.436.436 0 0 0-.617 0l-.25.25c-.17.171-.17.454.007.621l3.103 2.994H7.677a.437.437 0 0 0-.436.436v.362c0 .24.196.436.436.436h6.906l-3.106 2.994a.437.437 0 0 0-.008.62l.25.25c.175.171.45.171.621 0z" fill="#000" fill-rule="nonzero"/></svg>