<svg width="24" height="24" viewBox="0 0 24 24" xmlns="http://www.w3.org/2000/svg"><title>arrow-circle-left</title><path d="M24 12c0-6.629-5.371-12-12-12S0 5.371 0 12s5.371 12 12 12 12-5.371 12-12zM12 22.452c-5.744 0-10.452-4.65-10.452-10.452C1.548 6.256 6.198 1.548 12 1.548c5.744 0 10.452 4.65 10.452 10.452 0 5.744-4.65 10.452-10.452 10.452z"/><path d="M11.546 16.482L7.37 12.308a.436.436 0 0 1 0-.616l4.177-4.174c.17-.17.447-.17.617 0l.25.25a.434.434 0 0 1-.007.621l-3.102 2.994h6.906c.24 0 .435.196.435.436v.362c0 .24-.196.436-.435.436H9.304l3.106 2.994c.174.17.178.45.007.62l-.25.25a.44.44 0 0 1-.62 0z"/></svg>