<svg width="24" height="24" viewBox="0 0 24 24" xmlns="http://www.w3.org/2000/svg"><title>arrow-circle-right</title><path d="M24 12c0-6.629-5.371-12-12-12S0 5.371 0 12s5.371 12 12 12 12-5.371 12-12zM12 22.452c-5.744 0-10.452-4.65-10.452-10.452C1.548 6.256 6.198 1.548 12 1.548c5.744 0 10.452 4.65 10.452 10.452 0 5.744-4.65 10.452-10.452 10.452z"/><path d="M12.34 16.482l4.177-4.174a.436.436 0 0 0 0-.616L12.34 7.518a.436.436 0 0 0-.617 0l-.25.25a.436.436 0 0 0 .007.621l3.103 2.994H7.677a.437.437 0 0 0-.436.436v.362c0 .24.196.436.436.436h6.906l-3.106 2.994a.437.437 0 0 0-.008.62l.25.25a.44.44 0 0 0 .621 0z"/></svg>