<svg width="24" height="24" xmlns="http://www.w3.org/2000/svg"><path d="M21 12c0-4.972-4.028-9-9-9s-9 4.028-9 9 4.028 9 9 9 9-4.028 9-9zM4.742 12A7.256 7.256 0 0 1 12 4.742 7.256 7.256 0 0 1 19.258 12 7.256 7.256 0 0 1 12 19.258 7.256 7.256 0 0 1 4.742 12zm6.86 4.714L7.2 12.308a.436.436 0 0 1 0-.616l4.403-4.406c.17-.17.447-.17.617 0l.711.711a.435.435 0 0 1-.007.624l-2.55 2.435h5.833c.239 0 .435.196.435.436v1.016c0 .24-.196.436-.435.436h-5.833l2.55 2.435c.178.17.181.45.007.624l-.71.711a.436.436 0 0 1-.618 0z"/></svg>