<svg width="24" height="24" viewBox="0 0 24 24" xmlns="http://www.w3.org/2000/svg"><title>bars</title><path d="M18.326 7.895H5.674A.174.174 0 0 1 5.5 7.72v-.697c0-.096.078-.174.174-.174h12.652c.096 0 .174.078.174.174v.697a.174.174 0 0 1-.174.174zm0 4.643H5.674a.174.174 0 0 1-.174-.175v-.696c0-.096.078-.174.174-.174h12.652c.096 0 .174.078.174.174v.696a.174.174 0 0 1-.174.175zm0 4.642H5.674a.174.174 0 0 1-.174-.174v-.696c0-.096.078-.174.174-.174h12.652c.096 0 .174.078.174.174v.696a.174.174 0 0 1-.174.174z"/></svg>