<svg width="24" height="24" xmlns="http://www.w3.org/2000/svg"><path d="M21.688 7.556c0-1.41-1.281-2.556-2.856-2.556-1.221 0-2.307.695-2.702 1.73-.034.095-.204.614-.349.614h-2.46c-.816 0-1.478.63-1.478 1.406h3.938c.473 0 1.164.035 1.737-1.54.184-.48.711-.804 1.314-.804.76 0 1.379.516 1.379 1.15 0 .512-.132.942-.74 1.207-.39.171-.63.525-.63.924 0 .4.242.754.63.924.595.26.74.677.74 1.208 0 .634-.618 1.15-1.379 1.15-.602 0-1.13-.324-1.314-.804-.309-.876-.636-1.54-1.737-1.54h-.492c-.816 0-1.477.63-1.477 1.406h1.97c.136 0 .314.52.348.614.395 1.035 1.48 1.73 2.702 1.73 1.575 0 2.855-1.147 2.855-2.556 0-.856-.244-1.558-.995-2.131.747-.57.996-1.27.996-2.132zM9.204 14.463c-.334.318-.849.76-.084 2.26.227.463.093 1.046-.333 1.452-.538.513-1.358.564-1.828.116-.38-.362-.607-.755-.374-1.352a.976.976 0 0 0-.24-1.078 1.101 1.101 0 0 0-1.132-.229c-.613.217-1.026.02-1.42-.356-.47-.448-.416-1.229.122-1.74.426-.406 1.039-.534 1.525-.318.87.412 1.594.661 2.373-.08l1.798-1.713a1.36 1.36 0 0 0 0-1.988L6.77 12.143c-.097.092-.609-.155-.703-.199-1.047-.465-2.331-.226-3.195.597-1.114 1.06-1.168 2.733-.122 3.73.636.605 1.33.937 2.287.837-.105.905.238 1.567.879 2.177 1.046.997 2.803.945 3.916-.115.864-.823 1.115-2.046.626-3.044-.046-.09-.311-.57-.208-.668l.813-.775a1.36 1.36 0 0 0 0-1.989l-1.858 1.77z" fill="#000" fill-rule="nonzero"/></svg>