<?xml version="1.0" encoding="UTF-8"?>
<svg width="24px" height="24px" viewBox="0 0 24 24" version="1.1" xmlns="http://www.w3.org/2000/svg" xmlns:xlink="http://www.w3.org/1999/xlink">
    <!-- Generator: Sketch 54.1 (76490) - https://sketchapp.com -->
    <title>calculator-alt</title>
    <desc>Created with Sketch.</desc>
    <g id="calculator-alt" stroke="none" stroke-width="1" fill="none" fill-rule="evenodd">
        <path d="M5.7,8.4 L9.9,8.4 C10.06575,8.4 10.2,8.26575 10.2,8.1 L10.2,7.5 C10.2,7.33425 10.06575,7.2 9.9,7.2 L5.7,7.2 C5.53425,7.2 5.4,7.33425 5.4,7.5 L5.4,8.1 C5.4,8.26575 5.53425,8.4 5.7,8.4 Z M5.890875,17.685 L6.315,18.109125 C6.432,18.226125 6.622125,18.226125 6.739125,18.109125 L7.8,17.048625 L8.860875,18.1095 C8.977875,18.2265 9.168,18.2265 9.285,18.1095 L9.709125,17.685375 C9.826125,17.568375 9.826125,17.37825 9.709125,17.26125 L8.648625,16.2 L9.7095,15.139125 C9.8265,15.022125 9.8265,14.832 9.7095,14.715 L9.285375,14.290875 C9.168375,14.173875 8.97825,14.173875 8.86125,14.290875 L7.8,15.351375 L6.739125,14.2905 C6.622125,14.1735 6.432,14.1735 6.315,14.2905 L5.890875,14.715 C5.773875,14.832 5.773875,15.022125 5.890875,15.139125 L6.951375,16.2 L5.8905,17.2605 C5.77341318,17.3778392 5.77358105,17.5678678 5.890875,17.685 L5.890875,17.685 Z M19.8,3 L4.2,3 C3.537375,3 3,3.537375 3,4.2 L3,19.8 C3,20.462625 3.537375,21 4.2,21 L19.8,21 C20.462625,21 21,20.462625 21,19.8 L21,4.2 C21,3.537375 20.462625,3 19.8,3 Z M11.4,19.8 L4.2,19.8 L4.2,12.6 L11.4,12.6 L11.4,19.8 Z M11.4,11.4 L4.2,11.4 L4.2,4.2 L11.4,4.2 L11.4,11.4 Z M19.8,19.8 L12.6,19.8 L12.6,12.6 L19.8,12.6 L19.8,19.8 Z M19.8,11.4 L12.6,11.4 L12.6,4.2 L19.8,4.2 L19.8,11.4 Z M14.1,8.4 L15.6,8.4 L15.6,9.9 C15.6,10.06575 15.73425,10.2 15.9,10.2 L16.5,10.2 C16.66575,10.2 16.8,10.06575 16.8,9.9 L16.8,8.4 L18.3,8.4 C18.46575,8.4 18.6,8.26575 18.6,8.1 L18.6,7.5 C18.6,7.33425 18.46575,7.2 18.3,7.2 L16.8,7.2 L16.8,5.7 C16.8,5.53425 16.66575,5.4 16.5,5.4 L15.9,5.4 C15.73425,5.4 15.6,5.53425 15.6,5.7 L15.6,7.2 L14.1,7.2 C13.93425,7.2 13.8,7.33425 13.8,7.5 L13.8,8.1 C13.8,8.26575 13.93425,8.4 14.1,8.4 Z M14.1,18 L18.3,18 C18.46575,18 18.6,17.86575 18.6,17.7 L18.6,17.1 C18.6,16.93425 18.46575,16.8 18.3,16.8 L14.1,16.8 C13.93425,16.8 13.8,16.93425 13.8,17.1 L13.8,17.7 C13.8,17.86575 13.93425,18 14.1,18 Z M14.1,15.6 L18.3,15.6 C18.46575,15.6 18.6,15.46575 18.6,15.3 L18.6,14.7 C18.6,14.53425 18.46575,14.4 18.3,14.4 L14.1,14.4 C13.93425,14.4 13.8,14.53425 13.8,14.7 L13.8,15.3 C13.8,15.46575 13.93425,15.6 14.1,15.6 Z" fill="#000000" fill-rule="nonzero"></path>
    </g>
</svg>