<?xml version="1.0" encoding="UTF-8"?>
<svg width="24px" height="24px" viewBox="0 0 24 24" version="1.1" xmlns="http://www.w3.org/2000/svg" xmlns:xlink="http://www.w3.org/1999/xlink">
    <!-- Generator: Sketch 54.1 (76490) - https://sketchapp.com -->
    <title>calculator</title>
    <desc>Created with Sketch.</desc>
    <g id="calculator" stroke="none" stroke-width="1" fill="none" fill-rule="evenodd">
        <path d="M6.9625,18.75 L17.0875,18.75 C17.3982812,18.75 17.65,18.4982812 17.65,18.1875 L17.65,11.4375 C17.65,11.1267188 17.3982812,10.875 17.0875,10.875 L6.9625,10.875 C6.65171875,10.875 6.4,11.1267188 6.4,11.4375 L6.4,18.1875 C6.4,18.4982812 6.65171875,18.75 6.9625,18.75 Z M14.275,15.375 L14.275,12 L16.525,12 L16.525,17.625 L14.275,17.625 L14.275,15.375 Z M10.9,12 L13.15,12 L13.15,14.25 L10.9,14.25 L10.9,12 Z M10.9,15.375 L13.15,15.375 L13.15,17.625 L10.9,17.625 L10.9,15.375 Z M7.525,12 L9.775,12 L9.775,14.25 L7.525,14.25 L7.525,12 Z M7.525,15.375 L9.775,15.375 L9.775,17.625 L7.525,17.625 L7.525,15.375 Z M18.2125,3 L5.8375,3 C4.9375,3 4.15,3.7875 4.15,4.6875 L4.15,19.3125 C4.15,20.2125 4.9375,21 5.8375,21 L18.2125,21 C19.1125,21 19.9,20.2125 19.9,19.3125 L19.9,4.6875 C19.9,3.7875 19.1125,3 18.2125,3 Z M18.775,19.3125 C18.775,19.5912891 18.4912891,19.875 18.2125,19.875 L5.8375,19.875 C5.55871094,19.875 5.275,19.5912891 5.275,19.3125 L5.275,9.75 L18.775,9.75 L18.775,19.3125 Z M18.775,8.625 L5.275,8.625 L5.275,4.6875 C5.275,4.40871094 5.55871094,4.125 5.8375,4.125 L18.2125,4.125 C18.4912891,4.125 18.775,4.40871094 18.775,4.6875 L18.775,8.625 Z" id="Shape" fill="#000000" fill-rule="nonzero"></path>
    </g>
</svg>