<svg width="24" height="24" viewBox="0 0 24 24" xmlns="http://www.w3.org/2000/svg"><title>calendar</title><path d="M18.212 5.25h-1.687V3.422A.423.423 0 0 0 16.103 3h-.281a.423.423 0 0 0-.422.422V5.25H8.65V3.422A.423.423 0 0 0 8.228 3h-.281a.423.423 0 0 0-.422.422V5.25H5.837c-.931 0-1.687.756-1.687 1.688v12.375c0 .931.756 1.687 1.688 1.687h12.374c.932 0 1.688-.756 1.688-1.688V6.938c0-.931-.756-1.687-1.688-1.687zM5.838 6.375h12.374c.31 0 .563.253.563.563v1.687h-13.5V6.937c0-.309.253-.562.563-.562zm12.374 13.5H5.838a.564.564 0 0 1-.563-.563V9.75h13.5v9.563a.564.564 0 0 1-.563.562zM9.353 14.25H7.947a.423.423 0 0 1-.422-.422v-1.406c0-.232.19-.422.422-.422h1.406c.232 0 .422.19.422.422v1.406c0 .232-.19.422-.422.422zm3.375 0h-1.406a.423.423 0 0 1-.422-.422v-1.406c0-.232.19-.422.422-.422h1.406c.232 0 .422.19.422.422v1.406c0 .232-.19.422-.422.422zm3.375 0h-1.406a.423.423 0 0 1-.422-.422v-1.406c0-.232.19-.422.422-.422h1.406c.232 0 .422.19.422.422v1.406c0 .232-.19.422-.422.422zm-3.375 3.375h-1.406a.423.423 0 0 1-.422-.422v-1.406c0-.232.19-.422.422-.422h1.406c.232 0 .422.19.422.422v1.406c0 .232-.19.422-.422.422zm-3.375 0H7.947a.423.423 0 0 1-.422-.422v-1.406c0-.232.19-.422.422-.422h1.406c.232 0 .422.19.422.422v1.406c0 .232-.19.422-.422.422zm6.75 0h-1.406a.423.423 0 0 1-.422-.422v-1.406c0-.232.19-.422.422-.422h1.406c.232 0 .422.19.422.422v1.406c0 .232-.19.422-.422.422z"/></svg>