<svg width="533" height="565" xmlns="http://www.w3.org/2000/svg"><g fill="none"><path d="M76.13 563.635h-1.872c-33.95-48.32-7.904-109.121 6.128-135.709 15.92-29.56 18.4-37.68 14.54-34.84-14.36 23.42-36.86 60.74-45.62 99.11-4.57 19.99-5.4 40.24.53 58.97 1.193 3.773 3.28 7.929 6.26 12.47h-3.125c-25.404 3.07-39.563-5.022-42.476-24.275-4.37-28.88-15.875-12.611-5.915-42.541 21.11-63.43 65.69-124.36 97.34-162 26.95-38.3 34.89-69.18 37.66-108.36C141.83 172.89 101.66 12.89 253.1.7c5.99-.48 11.74-.71 17.25-.7 135.52.19 127.9 143 127.051 220.01-.551 50.46 27.35 84.62 55.88 120.61 25.49 30.12 58.86 74.149 77.97 124.689 7.667 20.262-11.883 44.7-58.652 73.317a161.867 161.867 0 0 0-4.683-2.031c4.94-20.09 3.96-40.451-.65-59.81-10.1-42.46-37.87-80.07-59.01-98.78-3.91-.16-3.53 3.26 4.34 10.9 19.5 17.94 62.13 82.35 39.06 142.16-6.59-1.689-48.87-65.174-85.193-65.174-44.798 0-81.861 87.205-118.083 85.275-72.445-3.86-92.976-58.334-96.997-61.563-7.38-5.934-71.464 39.624-75.253 74.032z" fill="#3A6DCB"/><path d="M336.77 224.69c-2.63-5.15-8-10.05-17.14-13.8l-.02-.01-.03-.01c-19.01-8.14-27.26-8.72-37.87-15.62-17.27-11.1-31.54-14.99-43.4-14.94-6.21.02-11.76 1.12-16.73 2.84-14.45 4.97-24.04 15.34-30.05 21.03l-.01.01c0 .01-.01.01-.01.02-1.18 1.12-2.7 2.14-6.38 4.84-3.71 2.71-9.27 6.79-17.27 12.79-7.11 5.33-9.42 12.27-6.96 20.4 2.45 8.13 10.29 17.51 24.63 25.62l.02.02.03.01c8.9 5.23 14.98 12.28 21.96 17.89 3.49 2.8 7.16 5.3 11.58 7.19 4.42 1.89 9.58 3.17 16.04 3.55 15.16.88 26.32-3.67 36.17-9.31 9.87-5.63 18.229-12.52 27.82-15.63l.02-.01.021-.01c19.659-6.14 33.68-18.51 38.069-30.26 2.2-5.88 2.13-11.46-.49-16.61z" fill="#EBE7DD"/><path d="M286.89 253.71c-15.64 8.153-33.91 18.04-53.35 18.04-19.43 0-34.78-8.98-45.82-17.73-5.52-4.37-10-8.72-13.38-11.88-5.864-4.629-5.162-11.122-2.752-10.93 4.038.504 4.649 5.822 7.192 8.2 3.44 3.22 7.75 7.39 12.97 11.53 10.44 8.27 24.36 16.32 41.79 16.32 17.4 0 37.712-10.215 50.11-17.17 7.024-3.94 15.962-11.003 23.257-16.357 5.58-4.097 5.377-9.03 9.985-8.493 4.608.537 1.199 5.46-5.254 11.092-6.453 5.632-16.548 13.104-24.748 17.378z" fill="#3B79CB"/><path d="M338.51 166.03c.08 10.09-1.66 18.68-5.49 27.45-2.18 5-4.689 9.2-7.699 12.84-1.021-.49-2.08-.96-3.181-1.41-3.81-1.63-7.18-2.97-10.199-4.11-3.021-1.14-5.378-1.919-7.809-2.759 1.761-2.13 5.23-4.64 6.521-7.79 1.96-4.75 2.92-9.39 3.1-14.92 0-.22.07-.41.07-.67.11-5.3-.59-9.83-2.14-14.47-1.62-4.87-3.68-8.37-6.66-11.28-2.99-2.91-5.97-4.23-9.55-4.35-.17-.01-.33-.01-.5-.01-3.36.01-6.28 1.17-9.3 3.69-3.17 2.65-5.52 6.04-7.48 10.76-1.95 4.72-2.91 9.4-3.1 14.96-.03.22-.03.41-.03.63-.07 3.06.13 5.86.6 8.58-6.88-3.43-15.682-5.931-21.762-7.381-.35-2.63-.55-5.34-.61-8.18v-.77c-.11-10.06 1.54-18.69 5.41-27.45 3.87-8.77 8.66-15.07 15.399-20.2 6.75-5.12 13.381-7.47 21.23-7.55h.37c7.68 0 14.25 2.26 21 7.15 6.85 4.98 11.79 11.2 15.77 19.9 3.9 8.48 5.78 16.77 5.971 26.6-.001.26-.001.48.069.74zm-116.08 10.05c-1.01.29-1.99.6-2.96.93-5.5 1.9-9.867 3.997-14.087 6.787.41-2.92.47-5.88.15-9.19-.03-.18-.03-.33-.03-.51-.44-4.39-1.37-8.07-2.92-11.79-1.65-3.87-3.5-6.6-5.93-8.7-2.2-1.9-4.28-2.78-6.58-2.76-.23 0-.47.01-.71.03-2.58.22-4.72 1.48-6.75 3.95-2.02 2.46-3.35 5.52-4.31 9.58-.96 4.05-1.21 8.03-.81 12.6 0 .18.04.33.04.51.44 4.43 1.33 8.11 2.91 11.83 1.62 3.83 3.5 6.56 5.93 8.66.41.35.81.67 1.21.95-2.52 1.95-4.213 3.333-6.293 4.853-1.33.97-2.91 2.13-4.75 3.49-4.01-3.76-7.14-8.48-9.88-14.71-3.24-7.36-4.97-14.73-5.49-23.43v-.07c-.48-8.7.37-16.18 2.76-23.92 2.4-7.74 5.6-13.34 10.25-17.94 4.64-4.61 9.32-6.93 14.96-7.22.44-.02.87-.03 1.3-.03 5.11.01 9.67 1.71 14.39 5.48 5.12 4.09 8.99 9.32 12.23 16.69 3.25 7.37 4.98 14.74 5.46 23.44v.07c.23 3.65.2 7.09-.09 10.42z" fill="#EBE7DD"/><path d="M248.087 196.89c.646 2.076 3.993 1.732 5.926 2.728 1.696.873 3.06 2.789 4.968 2.844 1.82.052 4.654-.63 4.89-2.437.313-2.385-3.17-3.901-5.412-4.775-2.885-1.125-6.58-1.696-9.287-.19-.62.344-1.296 1.152-1.085 1.83z" fill="#3B6FCC"/><path d="M228.322 196.89c-.647 2.076-3.993 1.732-5.926 2.728-1.696.873-3.06 2.789-4.968 2.844-1.82.052-4.654-.63-4.89-2.437-.314-2.385 3.17-3.901 5.412-4.775 2.885-1.125 6.58-1.696 9.286-.19.62.344 1.297 1.152 1.086 1.83z" fill="#3B71CB"/></g></svg>