<?xml version="1.0" encoding="UTF-8"?>
<svg width="24px" height="24px" viewBox="0 0 24 24" version="1.1" xmlns="http://www.w3.org/2000/svg" xmlns:xlink="http://www.w3.org/1999/xlink">
    <!-- Generator: Sketch 50.2 (55047) - http://www.bohemiancoding.com/sketch -->
    <title>check-circle</title>
    <desc>Created with Sketch.</desc>
    <defs></defs>
    <g id="check-circle" stroke="none" stroke-width="1" fill="none" fill-rule="evenodd">
        <g transform="translate(3.000000, 3.000000)" fill="#000000" fill-rule="nonzero" id="Shape">
            <path d="M9,0 C4.02942339,0 0,4.02942339 0,9 C0,13.9705766 4.02942339,18 9,18 C13.9705766,18 18,13.9705766 18,9 C18,4.02942339 13.9705766,0 9,0 Z M14.1397984,6.86028629 L7.59012097,13.3574153 C7.419375,13.5267823 7.14364113,13.5256935 6.97427419,13.3549476 L3.85773387,10.2132218 C3.68836694,10.0424758 3.68945565,9.76674194 3.86020161,9.597375 L4.16939516,9.29068548 C4.34014113,9.12131855 4.615875,9.12240726 4.78524194,9.29315323 L7.28840323,11.8165282 L13.2197298,5.93277823 C13.3904758,5.76341129 13.6662097,5.7645 13.8355766,5.93524597 L14.1422661,6.24443952 C14.3116694,6.41518548 14.3105444,6.69091935 14.1397984,6.86028629 Z"></path>
        </g>
    </g>
</svg>