<svg width="24" height="24" viewBox="0 0 24 24" xmlns="http://www.w3.org/2000/svg"><title>clipboard-check</title><path d="M17.063 5.25h-3.115A1.97 1.97 0 0 0 12 3a1.97 1.97 0 0 0-1.948 2.25H6.938c-.932 0-1.688.756-1.688 1.688v12.375c0 .931.756 1.687 1.688 1.687h10.125c.931 0 1.687-.756 1.687-1.688V6.938c0-.931-.756-1.687-1.688-1.687zM12 4.125c.468 0 .844.376.844.844a.842.842 0 0 1-.844.843.842.842 0 0 1-.844-.843c0-.468.376-.844.844-.844zm5.625 15.188a.564.564 0 0 1-.563.562H6.938a.564.564 0 0 1-.562-.563V6.938c0-.309.253-.562.563-.562h1.687v.703c0 .232.19.422.422.422h5.906c.232 0 .422-.19.422-.422v-.703h1.688c.309 0 .562.253.562.563v12.375zm-2.07-8.311a.425.425 0 0 0-.598-.004l-4.138 4.106-1.772-1.779a.422.422 0 0 0-.598 0l-.299.3a.422.422 0 0 0 0 .597l2.37 2.376a.422.422 0 0 0 .598 0l4.739-4.7a.425.425 0 0 0 .003-.598l-.306-.298z"/></svg>