<svg width="24" height="24" xmlns="http://www.w3.org/2000/svg"><path d="M12 3c-4.972 0-9 4.028-9 9s4.028 9 9 9 9-4.028 9-9-4.028-9-9-9zm0 16.258A7.256 7.256 0 0 1 4.742 12 7.256 7.256 0 0 1 12 4.742 7.256 7.256 0 0 1 19.258 12 7.256 7.256 0 0 1 12 19.258zm3.694-9.515L13.437 12l2.257 2.257c.17.17.17.447 0 .617l-.82.82a.436.436 0 0 1-.617 0L12 13.437l-2.257 2.257a.436.436 0 0 1-.617 0l-.82-.82a.436.436 0 0 1 0-.617L10.563 12 8.306 9.743a.436.436 0 0 1 0-.617l.82-.82c.17-.17.446-.17.617 0L12 10.563l2.257-2.257c.17-.17.447-.17.617 0l.82.82c.17.17.17.446 0 .617z"/></svg>