<svg width="24" height="24" xmlns="http://www.w3.org/2000/svg"><path d="M12 3c-4.972 0-9 4.028-9 9s4.028 9 9 9 9-4.028 9-9-4.028-9-9-9zm0 16.839c-4.308 0-7.839-3.488-7.839-7.839 0-4.308 3.488-7.839 7.839-7.839 4.308 0 7.839 3.488 7.839 7.839 0 4.308-3.488 7.839-7.839 7.839zm3.44-10.354L12.925 12l2.515 2.515c.17.17.17.446 0 .617l-.308.308a.436.436 0 0 1-.617 0L12 12.925 9.485 15.44a.436.436 0 0 1-.617 0l-.308-.308a.436.436 0 0 1 0-.617L11.075 12 8.56 9.485a.436.436 0 0 1 0-.617l.308-.308c.17-.17.447-.17.617 0L12 11.075l2.515-2.515c.17-.17.446-.17.617 0l.308.308a.443.443 0 0 1 0 .617z"/></svg>