<svg width="24" height="24" viewBox="0 0 24 24" xmlns="http://www.w3.org/2000/svg"><title>cog</title><path d="M20.24 13.57l-1.183-.683a7.083 7.083 0 0 0 0-1.774l1.183-.684a.869.869 0 0 0 .401-.998 8.985 8.985 0 0 0-2.088-3.614.871.871 0 0 0-1.068-.155l-1.182.682a7.045 7.045 0 0 0-1.536-.888V4.09a.872.872 0 0 0-.671-.848 9.063 9.063 0 0 0-4.165 0 .872.872 0 0 0-.67.848v1.366a7.044 7.044 0 0 0-1.537.888l-1.182-.682a.871.871 0 0 0-1.068.155 8.985 8.985 0 0 0-2.088 3.614.869.869 0 0 0 .4.998l1.184.684a7.083 7.083 0 0 0 0 1.774l-1.183.684a.869.869 0 0 0-.401.998 8.985 8.985 0 0 0 2.088 3.614.871.871 0 0 0 1.068.155l1.182-.682c.472.36.989.658 1.536.888v1.366c0 .403.278.754.67.848a9.063 9.063 0 0 0 4.166 0 .872.872 0 0 0 .67-.848v-1.366a7.045 7.045 0 0 0 1.537-.888l1.182.682a.871.871 0 0 0 1.068-.155 8.985 8.985 0 0 0 2.088-3.614.869.869 0 0 0-.4-.998zm-2.376 3.646l-1.68-.97c-.98.837-1.327 1.048-2.579 1.49v1.94a7.88 7.88 0 0 1-3.184 0v-1.94c-1.22-.431-1.573-.631-2.578-1.49l-1.68.97a7.839 7.839 0 0 1-1.594-2.756l1.68-.97c-.236-1.286-.236-1.693 0-2.98l-1.68-.97a7.844 7.844 0 0 1 1.594-2.757l1.68.971c.994-.85 1.345-1.054 2.578-1.49v-1.94a7.867 7.867 0 0 1 3.184 0v1.94c1.233.436 1.585.64 2.578 1.49l1.681-.97a7.844 7.844 0 0 1 1.594 2.756l-1.681.97c.237 1.286.237 1.693 0 2.98l1.681.97a7.839 7.839 0 0 1-1.594 2.756zm-5.85-8.7A3.488 3.488 0 0 0 8.53 12a3.488 3.488 0 0 0 3.483 3.484A3.488 3.488 0 0 0 15.497 12a3.488 3.488 0 0 0-3.484-3.484zm0 5.807A2.325 2.325 0 0 1 9.69 12a2.325 2.325 0 0 1 2.322-2.323A2.325 2.325 0 0 1 14.336 12a2.325 2.325 0 0 1-2.323 2.323z"/></svg>