<svg width="24" height="24" xmlns="http://www.w3.org/2000/svg"><path d="M19.567 5.318l-1.861-1.824A1.74 1.74 0 0 0 16.488 3h-6.174c-.951 0-1.722.756-1.722 1.688v1.687h-2.87C4.77 6.375 4 7.131 4 8.063v11.25C4 20.244 4.77 21 5.722 21h8.036c.95 0 1.722-.756 1.722-1.688v-1.687h2.87c.95 0 1.721-.756 1.721-1.688V6.511a1.67 1.67 0 0 0-.504-1.193zm-2.94-1.176c.101.025.194.076.267.148l1.861 1.824a.556.556 0 0 1 .15.261h-2.277V4.142zm-2.295 15.17c0 .31-.258.563-.574.563H5.722a.569.569 0 0 1-.574-.563V8.063c0-.31.257-.562.574-.562h2.87v8.438c0 .931.77 1.687 1.722 1.687h4.018v1.688zm4.591-3.375c0 .31-.257.563-.574.563h-8.035a.569.569 0 0 1-.574-.563V4.688c0-.31.257-.562.574-.562h5.166v2.531c0 .464.387.844.86.844h2.583v8.438z" fill="#000" fill-rule="nonzero"/></svg>