<?xml version="1.0" encoding="UTF-8"?>
<svg width="24px" height="24px" viewBox="0 0 24 24" version="1.1" xmlns="http://www.w3.org/2000/svg" xmlns:xlink="http://www.w3.org/1999/xlink">
    <!-- Generator: Sketch 50.2 (55047) - http://www.bohemiancoding.com/sketch -->
    <title>download</title>
    <desc>Created with Sketch.</desc>
    <defs></defs>
    <g id="download" stroke="none" stroke-width="1" fill="none" fill-rule="evenodd">
        <g transform="translate(3.000000, 3.000000)" fill="#000000" fill-rule="nonzero" id="Shape">
            <path d="M15.890625,15.1875 C15.890625,15.5742188 15.5742188,15.890625 15.1875,15.890625 C14.8007812,15.890625 14.484375,15.5742188 14.484375,15.1875 C14.484375,14.8007812 14.8007812,14.484375 15.1875,14.484375 C15.5742188,14.484375 15.890625,14.8007812 15.890625,15.1875 Z M12.9375,14.484375 C12.5507812,14.484375 12.234375,14.8007812 12.234375,15.1875 C12.234375,15.5742188 12.5507812,15.890625 12.9375,15.890625 C13.3242188,15.890625 13.640625,15.5742188 13.640625,15.1875 C13.640625,14.8007812 13.3242188,14.484375 12.9375,14.484375 Z M18,12.796875 L18,16.453125 C18,17.3074219 17.3074219,18 16.453125,18 L1.546875,18 C0.692578125,18 0,17.3074219 0,16.453125 L0,12.796875 C0,11.9425781 0.692578125,11.25 1.546875,11.25 L5.04140625,11.25 L3.05859375,9.2671875 C2.17265625,8.38125 2.80195313,6.86601563 4.05351563,6.86601563 L5.90625,6.86601563 L5.90625,1.40625 C5.90625,0.629296875 6.53554688,0 7.3125,0 L10.6875,0 C11.4644531,0 12.09375,0.629296875 12.09375,1.40625 L12.09375,6.86601563 L13.9464844,6.86601563 C15.1980469,6.86601563 15.8238281,8.38125 14.9414062,9.2671875 L12.9585938,11.25 L16.453125,11.25 C17.3074219,11.25 18,11.9425781 18,12.796875 Z M8.79960938,13.4191406 C8.90859375,13.528125 9.08789062,13.528125 9.196875,13.4191406 L14.1433594,8.47265625 C14.3191406,8.296875 14.1960937,7.99101563 13.9429688,7.99101563 L10.96875,7.99101563 L10.96875,1.40625 C10.96875,1.2515625 10.8421875,1.125 10.6875,1.125 L7.3125,1.125 C7.1578125,1.125 7.03125,1.2515625 7.03125,1.40625 L7.03125,7.99101563 L4.05351563,7.99101563 C3.80390625,7.99101563 3.67734375,8.29335937 3.853125,8.47265625 L8.79960938,13.4191406 Z M16.875,12.796875 C16.875,12.5648437 16.6851563,12.375 16.453125,12.375 L11.8335938,12.375 L9.99492188,14.2136719 C9.44648437,14.7621094 8.55351562,14.7621094 8.00507813,14.2136719 L6.16640625,12.375 L1.546875,12.375 C1.31484375,12.375 1.125,12.5648437 1.125,12.796875 L1.125,16.453125 C1.125,16.6851562 1.31484375,16.875 1.546875,16.875 L16.453125,16.875 C16.6851563,16.875 16.875,16.6851562 16.875,16.453125 L16.875,12.796875 Z"></path>
        </g>
    </g>
</svg>