<svg width="24" height="24" viewBox="0 0 24 24" xmlns="http://www.w3.org/2000/svg"><title>download-excel</title><path d="M17.551 7.078L15.045 4.57a1.434 1.434 0 0 0-1.013-.421H7.934A1.439 1.439 0 0 0 6.5 5.587v12.429c0 .792.642 1.434 1.434 1.434h8.605c.791 0 1.434-.642 1.434-1.434V8.094c0-.38-.153-.747-.422-1.016zm-.675.678a.47.47 0 0 1 .126.221h-2.853V5.124a.47.47 0 0 1 .22.125l2.507 2.507zm-.337 10.738H7.934a.48.48 0 0 1-.478-.478V5.587a.48.48 0 0 1 .478-.478h5.258v3.107c0 .398.32.717.717.717h3.108v9.083a.48.48 0 0 1-.478.478zm-3.714-5.139l1.509-2.444a.359.359 0 0 0-.308-.544h-.122a.36.36 0 0 0-.302.165c-.926 1.449-1.088 1.598-1.366 2.226-.514-.962-.25-.478-1.368-2.226a.36.36 0 0 0-.302-.165h-.122a.357.357 0 0 0-.305.544l1.53 2.444-1.766 2.674a.359.359 0 0 0 .302.553h.104a.36.36 0 0 0 .302-.165c1.111-1.732 1.353-1.867 1.625-2.464.942 1.694 1.324 2.007 1.626 2.467a.354.354 0 0 0 .298.162h.108c.284 0 .454-.31.302-.55l-1.745-2.677z"/></svg>