<svg width="24" height="24" xmlns="http://www.w3.org/2000/svg"><path d="M18.89 18.188a.705.705 0 0 1-.703.703.705.705 0 0 1-.703-.703c0-.387.317-.704.703-.704.387 0 .704.317.704.703zm-2.953-.704a.705.705 0 0 0-.703.703c0 .387.317.704.704.704a.705.705 0 0 0 .703-.703.705.705 0 0 0-.703-.704zM21 15.797v3.656c0 .854-.693 1.547-1.547 1.547H4.547A1.547 1.547 0 0 1 3 19.453v-3.656c0-.854.693-1.547 1.547-1.547H8.04L6.06 12.267c-.886-.886-.257-2.401.995-2.401h1.852v-5.46c0-.777.63-1.406 1.406-1.406h3.376c.776 0 1.406.63 1.406 1.406v5.46h1.852c1.252 0 1.878 1.515.995 2.401L15.96 14.25h3.494c.854 0 1.547.693 1.547 1.547zm-9.2.622a.282.282 0 0 0 .397 0l4.946-4.946a.283.283 0 0 0-.2-.482h-2.974V4.406a.282.282 0 0 0-.281-.281h-3.375a.282.282 0 0 0-.282.281v6.585H7.054a.283.283 0 0 0-.2.482l4.946 4.946zm8.075-.622a.423.423 0 0 0-.422-.422h-4.62l-1.838 1.839a1.409 1.409 0 0 1-1.99 0l-1.839-1.839h-4.62a.423.423 0 0 0-.421.422v3.656c0 .232.19.422.422.422h14.906c.232 0 .422-.19.422-.422v-3.656z" fill="#000" fill-rule="nonzero"/></svg>