<svg width="24" height="24" viewBox="0 0 24 24" xmlns="http://www.w3.org/2000/svg"><title>download_pdf</title><path d="M17.552 7.078l-2.506-2.507a1.434 1.434 0 0 0-1.013-.421H7.934A1.44 1.44 0 0 0 6.5 5.587v12.43c0 .792.642 1.434 1.434 1.434h8.605c.792 0 1.435-.642 1.435-1.434V8.094c0-.38-.153-.747-.422-1.016zm-.675.678a.47.47 0 0 1 .126.222h-2.854V5.124a.47.47 0 0 1 .221.126l2.507 2.506zm-.338 10.74H7.934a.48.48 0 0 1-.478-.479V5.587a.48.48 0 0 1 .478-.478h5.259v3.108c0 .397.32.717.717.717h3.108v9.083a.48.48 0 0 1-.479.478zm-.657-5.116c-.403-.398-1.643-.275-2.202-.2-.633-.383-1.052-.909-1.348-1.692.129-.537.359-1.41.192-1.939-.132-.84-1.187-.738-1.333-.203-.15.547-.009 1.327.251 2.325-.356.848-.887 1.999-1.258 2.647-.621.32-1.616.875-1.757 1.566-.104.502.684 1.177 1.587.19.272-.295.576-.74.935-1.359.798-.263 1.676-.591 2.45-.717.655.359 1.422.595 1.93.595.828.003.864-.903.553-1.213zm-6.848 2.659c.176-.475.854-1.028 1.06-1.22-.66 1.056-1.06 1.24-1.06 1.22zm2.844-6.642c.26 0 .233 1.12.063 1.422-.155-.487-.15-1.422-.063-1.422zm-.848 4.76c.337-.592.627-1.291.86-1.904.29.53.66.947 1.049 1.24-.726.14-1.357.451-1.91.664zm4.583-.177s-.173.21-1.3-.272c1.226-.09 1.426.192 1.3.272z"/></svg>