<svg width="24" height="24" viewBox="0 0 24 24" xmlns="http://www.w3.org/2000/svg"><title>edit</title><path d="M16.056 13.86l.625-.626a.186.186 0 0 1 .319.132V18.5a1.5 1.5 0 0 1-1.5 1.5h-11A1.5 1.5 0 0 1 3 18.5v-11A1.5 1.5 0 0 1 4.5 6h9.134c.166 0 .25.203.132.319l-.625.625a.193.193 0 0 1-.132.056H4.5c-.275 0-.5.225-.5.5v11c0 .275.225.5.5.5h11c.275 0 .5-.225.5-.5v-4.51c0-.05.019-.096.056-.13zm4.56-5.976L10.85 17.65l-3.122.347a.656.656 0 0 1-.725-.725l.347-3.122 9.766-9.766a1.313 1.313 0 0 1 1.856 0l1.644 1.644a1.313 1.313 0 0 1 0 1.856zM17.69 9.397l-2.085-2.085-7.3 7.297-.26 2.347 2.348-.26 7.297-7.3zm2.218-2.663l-1.643-1.643a.311.311 0 0 0-.441 0l-1.512 1.512 2.084 2.085 1.512-1.513a.311.311 0 0 0 0-.44z"/></svg>