<svg width="24" height="24" viewBox="0 0 24 24" xmlns="http://www.w3.org/2000/svg" xmlns:xlink="http://www.w3.org/1999/xlink"><title>edit-doc</title><defs><rect id="a" width="15" height="20" rx="2"/></defs><g fill="none" fill-rule="evenodd"><g transform="translate(2 2)"><use fill="#000" xlink:href="#a"/><rect stroke="#FFF" x="-.5" y="-.5" width="16" height="21" rx="2"/></g><path fill="#FFF" d="M5 5h9v1H5zM5 9h9v1H5zM5 13h9v1H5zM5 17h9v1H5z"/><g stroke="#FFF"><path d="M17.984 8.415c.701-.7 1.717-.82 2.282-.255l1.51 1.509c.559.56.445 1.58-.256 2.282l-5.342 5.341-.976.977s-4.018 2.022-4.773 1.267c-.754-.755 1.237-4.803 1.237-4.803l6.318-6.318z" fill="#000" fill-rule="nonzero"/><path d="M12.722 13.707l3.52 3.55M17 9l3.5 3.5"/></g></g></svg>