<svg width="24" height="24" viewBox="0 0 24 24" xmlns="http://www.w3.org/2000/svg"><title>empty_data</title><path d="M17.15 21H7.06c-.87 0-1.56-.69-1.56-1.56V5.74c0-.871.69-1.56 1.56-1.56h1.162a.37.37 0 0 1 .38.38c0 .218-.162.4-.38.4H7.06a.774.774 0 0 0-.78.78v13.7c0 .435.345.78.78.78h10.09c.417 0 .78-.345.78-.78V5.74a.786.786 0 0 0-.78-.78h-1.162a.403.403 0 0 1-.4-.4c0-.217.182-.38.4-.38h1.161c.853 0 1.543.689 1.543 1.56v13.7c0 .87-.69 1.56-1.543 1.56zm-.781-14.86c0 .199-.181.38-.381.38H8.222c-.218 0-.4-.181-.4-.38 0-.219.182-.4.4-.4 0 0 .435-.055.78-.4l.762-.78s.309-.38.78-.38h.4c0-.654.508-1.18 1.16-1.18.636 0 1.162.526 1.162 1.18h.381c.508 0 .78.38.78.38l.78.78c.345.345.78.4.78.4a.4.4 0 0 1 .382.4zm-4.264-2.36c-.218 0-.4.182-.4.4h.78c0-.218-.162-.4-.38-.4zm2.068 1.56s-.254-.38-.69-.38h-2.757c-.454 0-.708.38-.708.38l-.345.4h4.863l-.363-.4z"/></svg>