<svg width="24" height="24" viewBox="0 0 24 24" xmlns="http://www.w3.org/2000/svg"><title>envelope-open-dollar</title><path d="M20.388 8.784c-.07-.057-.78-.63-1.638-1.32V6.375c0-.621-.504-1.125-1.125-1.125h-1.634c-.145-.116-.27-.217-.358-.286C14.856 4.343 13.527 3 12 3c-1.52 0-2.835 1.326-3.633 1.964l-.359.286H6.375c-.621 0-1.125.504-1.125 1.125v1.09A620.77 620.77 0 0 0 3.616 8.78C3.226 9.1 3 9.579 3 10.083v9.23C3 20.244 3.756 21 4.688 21h14.625c.931 0 1.687-.756 1.687-1.688v-9.228c0-.503-.224-.98-.612-1.3zM12 4.125c.765 0 1.57.588 2.22 1.125H9.782c.651-.537 1.456-1.125 2.218-1.125zm-5.625 2.25h11.25v6.094a705.743 705.743 0 0 1-3.044 2.438c-.593.472-1.765 1.606-2.581 1.593-.816.013-1.988-1.12-2.58-1.593a722.495 722.495 0 0 1-3.045-2.438V6.375zm-2.25 3.708a.56.56 0 0 1 .205-.434l.92-.741v2.656l-1.125-.907v-.574zm15.75 9.23c0 .31-.252.562-.563.562H4.688a.563.563 0 0 1-.562-.563v-7.21a974.182 974.182 0 0 0 4.594 3.685c.72.576 1.995 1.847 3.281 1.838 1.281.009 2.54-1.247 3.28-1.838a932.898 932.898 0 0 0 4.595-3.685v7.21zm0-8.656l-1.125.907V8.908c.508.409.872.702.921.743a.56.56 0 0 1 .204.433v.573zm-8.827.8l1.582.475a.46.46 0 0 1 .308.448c0 .256-.186.464-.415.464h-.988a.842.842 0 0 1-.45-.131.289.289 0 0 0-.357.026l-.413.394a.282.282 0 0 0 .02.427c.32.24.706.378 1.103.399v.572a.28.28 0 0 0 .281.281h.563a.281.281 0 0 0 .28-.28v-.567c.831-.023 1.501-.723 1.501-1.585 0-.702-.456-1.33-1.11-1.525l-1.582-.475a.46.46 0 0 1-.309-.448c0-.255.187-.463.415-.463h.988c.16 0 .315.045.451.13a.289.289 0 0 0 .356-.025l.413-.394a.282.282 0 0 0-.02-.427 2.013 2.013 0 0 0-1.102-.4v-.572a.281.281 0 0 0-.282-.281h-.562a.281.281 0 0 0-.281.281v.567c-.83.022-1.5.722-1.5 1.584 0 .703.456 1.33 1.11 1.526z"/></svg>