<svg width="24" height="24" viewBox="0 0 24 24" xmlns="http://www.w3.org/2000/svg"><title>envelope</title><path d="M19.313 5.25H4.688C3.756 5.25 3 6.006 3 6.938v10.125c0 .931.756 1.687 1.688 1.687h14.625c.931 0 1.687-.756 1.687-1.688V6.938c0-.931-.756-1.687-1.688-1.687zM4.688 6.375h14.625c.309 0 .562.253.562.563v1.455c-.77.65-1.87 1.547-5.295 4.264-.594.472-1.764 1.607-2.58 1.593-.816.014-1.99-1.121-2.58-1.593C5.995 9.94 4.895 9.043 4.125 8.393V6.937c0-.309.253-.562.563-.562zm14.625 11.25H4.688a.564.564 0 0 1-.563-.563V9.855a405.38 405.38 0 0 0 4.595 3.681c.72.577 1.993 1.846 3.28 1.839 1.28.01 2.542-1.248 3.28-1.839a416.352 416.352 0 0 0 4.595-3.68v7.207a.564.564 0 0 1-.563.562z"/></svg>