<svg width="24" height="24" viewBox="0 0 24 24" xmlns="http://www.w3.org/2000/svg"><title>exclamation</title><path d="M12 4.161c4.305 0 7.839 3.487 7.839 7.839A7.837 7.837 0 0 1 12 19.839 7.837 7.837 0 0 1 4.161 12 7.838 7.838 0 0 1 12 4.161zM12 3c-4.97 0-9 4.031-9 9a9 9 0 0 0 9 9 9 9 0 0 0 9-9c0-4.969-4.03-9-9-9zm-.417 4.355h.834c.248 0 .445.206.435.453l-.254 6.097a.435.435 0 0 1-.435.418h-.326a.436.436 0 0 1-.435-.418l-.254-6.097a.436.436 0 0 1 .435-.453zM12 15.048a1.016 1.016 0 1 0 0 2.033 1.016 1.016 0 0 0 0-2.033z"/></svg>