<svg width="24" height="24" viewBox="0 0 24 24" xmlns="http://www.w3.org/2000/svg"><title>exclamation</title><path d="M10.773 10.397l.206 3.5a.375.375 0 0 0 .375.353h1.292a.375.375 0 0 0 .375-.353l.206-3.5a.375.375 0 0 0-.375-.397h-1.704a.375.375 0 0 0-.375.397zM13.313 16a1.312 1.312 0 1 1-2.625 0 1.312 1.312 0 0 1 2.625 0zm-.014-11.25a1.5 1.5 0 0 0-2.598 0l-7.499 13a1.5 1.5 0 0 0 1.3 2.25h14.996a1.5 1.5 0 0 0 1.3-2.25l-7.499-13zM4.662 18.219l7.176-12.437a.187.187 0 0 1 .324 0l7.176 12.437a.187.187 0 0 1-.163.281H4.825a.187.187 0 0 1-.163-.281z"/></svg>