<svg width="24" height="24" viewBox="0 0 24 24" xmlns="http://www.w3.org/2000/svg"><title>eye-slash</title><path d="M12 15.45c-2.133 0-3.86-1.651-4.02-3.744l-2.95-2.28a9.374 9.374 0 0 0-1.032 1.564.91.91 0 0 0 0 .82C5.523 14.788 8.543 16.8 12 16.8c.757 0 1.487-.112 2.19-.294l-1.459-1.13a4.054 4.054 0 0 1-.731.074zm8.826 1.634l-3.11-2.403a9.316 9.316 0 0 0 2.286-2.87.91.91 0 0 0 0-.822C18.477 8.014 15.457 6 12 6a8.667 8.667 0 0 0-4.143 1.06L4.279 4.295a.45.45 0 0 0-.632.079l-.552.71a.45.45 0 0 0 .079.632l16.547 12.79a.45.45 0 0 0 .632-.08l.552-.71a.45.45 0 0 0-.079-.632zM15.66 13.09l-1.105-.854a2.665 2.665 0 0 0-3.266-3.43c.17.23.261.508.262.794-.004.095-.019.19-.043.281l-2.07-1.6A4.002 4.002 0 0 1 12 7.351a4.048 4.048 0 0 1 4.05 4.049c0 .608-.149 1.175-.391 1.69z"/></svg>