<svg width="24" height="24" xmlns="http://www.w3.org/2000/svg"><path d="M17.979 6.47l-2.944-2.944a1.684 1.684 0 0 0-1.19-.494h-7.16A1.69 1.69 0 0 0 5 4.719v14.597C5 20.246 5.754 21 6.684 21H16.79c.93 0 1.685-.754 1.685-1.684V7.663c0-.445-.18-.877-.495-1.193zm-.793.797a.552.552 0 0 1 .147.26h-3.35V4.174a.552.552 0 0 1 .26.148l2.943 2.944zm-.397 12.61H6.684a.563.563 0 0 1-.561-.561V4.719c0-.308.252-.561.561-.561h6.176v3.649a.84.84 0 0 0 .842.842h3.649v10.667a.563.563 0 0 1-.562.561zm-4.36-6.035l1.771-2.87a.421.421 0 0 0-.361-.639h-.144a.423.423 0 0 0-.355.193c-1.087 1.702-1.277 1.878-1.603 2.614-.604-1.13-.295-.561-1.607-2.614a.423.423 0 0 0-.355-.193h-.143a.42.42 0 0 0-.358.639l1.796 2.87-2.074 3.14c-.178.281.022.65.355.65h.123a.423.423 0 0 0 .354-.193c1.305-2.035 1.59-2.193 1.909-2.895 1.105 1.99 1.554 2.358 1.909 2.898.077.12.21.19.35.19h.127a.419.419 0 0 0 .354-.646l-2.049-3.144z" fill="#000" fill-rule="nonzero"/></svg>