<svg width="24" height="24" xmlns="http://www.w3.org/2000/svg"><path d="M10.579 14.825l-1.386-1.386a.421.421 0 0 0-.597 0l-1.368 1.368-.017 3.947h8.982v-5.052l-1.947-1.948a.421.421 0 0 0-.597 0l-3.07 3.07zm3.368-1.78l1.123 1.123v3.464H8.337l.01-2.358.548-.548 1.684 1.685c.712-.713 2.726-2.723 3.368-3.365zm-4.49-1.027a2.248 2.248 0 0 0 2.245-2.246 2.248 2.248 0 0 0-2.246-2.246 2.248 2.248 0 0 0-2.245 2.246 2.248 2.248 0 0 0 2.245 2.246zm0-3.369c.617 0 1.122.505 1.122 1.123 0 .617-.505 1.123-1.123 1.123a1.126 1.126 0 0 1-1.123-1.123c0-.618.506-1.123 1.123-1.123zm8.522-2.179l-2.944-2.944a1.684 1.684 0 0 0-1.19-.494h-7.16A1.69 1.69 0 0 0 5 4.719v14.597C5 20.246 5.754 21 6.684 21H16.79c.93 0 1.685-.754 1.685-1.684V7.663c0-.445-.18-.877-.495-1.193zm-3.997-2.295a.552.552 0 0 1 .26.148l2.944 2.944a.552.552 0 0 1 .147.26h-3.35V4.174zm3.369 15.14a.563.563 0 0 1-.562.562H6.684a.563.563 0 0 1-.561-.561V4.719c0-.308.252-.561.561-.561h6.176v3.649a.84.84 0 0 0 .842.842h3.649v10.667z" fill="#000" fill-rule="nonzero"/></svg>