<svg width="24" height="24" xmlns="http://www.w3.org/2000/svg"><path d="M18.006 6.443l-2.95-2.949A1.687 1.687 0 0 0 13.865 3H6.687C5.756 3 5 3.756 5 4.688v14.625C5 20.244 5.756 21 6.688 21h10.125c.931 0 1.687-.756 1.687-1.688V7.636c0-.447-.178-.876-.494-1.193zM14 4.143c.099.024.19.075.261.147l2.95 2.949a.559.559 0 0 1 .147.261H14V4.142zm3.375 15.17c0 .31-.252.562-.563.562H6.688a.563.563 0 0 1-.562-.563V4.688c0-.31.252-.562.563-.562H9.49V5.25h1.125V4.125h2.26v3.656c0 .466.378.844.844.844h3.656v10.688zM11.75 6.374h-1.125V5.25h1.125v1.125zm-1.125 0V7.5H9.5V6.375h1.125zm0 2.25V9.75H9.5V8.625h1.125zm1.125 0h-1.125V7.5h1.125v1.125zM11.404 12h-.779v-1.125H9.5V12l-.684 3.419a1.845 1.845 0 1 0 3.618 0l-.616-3.08a.422.422 0 0 0-.414-.339zm-.77 4.714c-.63 0-1.14-.426-1.14-.951 0-.525.51-.95 1.14-.95.63 0 1.141.425 1.141.95 0 .525-.51.95-1.14.95zm1.116-5.839h-1.125V9.75h1.125v1.125z" fill="#000" fill-rule="nonzero"/></svg>