<svg width="24" height="24" xmlns="http://www.w3.org/2000/svg"><path d="M17.979 6.47l-2.944-2.944a1.684 1.684 0 0 0-1.19-.494h-7.16A1.69 1.69 0 0 0 5 4.719v14.597C5 20.246 5.754 21 6.684 21H16.79c.93 0 1.685-.754 1.685-1.684V7.663c0-.445-.18-.877-.495-1.193zm-.793.797a.552.552 0 0 1 .147.26h-3.35V4.174a.552.552 0 0 1 .26.148l2.943 2.944zm-.397 12.61H6.684a.563.563 0 0 1-.561-.561V4.719c0-.308.252-.561.561-.561h6.176v3.649a.84.84 0 0 0 .842.842h3.649v10.667a.563.563 0 0 1-.562.561zm-.771-6.007c-.474-.466-1.93-.323-2.586-.235-.744-.449-1.236-1.067-1.583-1.986.151-.631.421-1.656.225-2.277-.155-.986-1.393-.867-1.565-.239-.176.642-.01 1.558.295 2.73-.418.997-1.043 2.348-1.478 3.109-.73.375-1.898 1.028-2.063 1.839-.123.589.804 1.382 1.863.224.32-.347.678-.87 1.099-1.596.936-.31 1.968-.695 2.877-.843.768.422 1.67.699 2.266.699.972.003 1.014-1.06.65-1.425zm-8.043 3.123c.207-.558 1.004-1.207 1.246-1.432-.775 1.239-1.246 1.457-1.246 1.432zm3.34-7.8c.306 0 .274 1.316.074 1.67-.182-.572-.175-1.67-.073-1.67zm-.996 5.59c.397-.695.737-1.516 1.01-2.236.341.621.776 1.113 1.232 1.457-.852.164-1.593.53-2.242.778zm5.383-.208s-.204.246-1.527-.319c1.439-.105 1.674.225 1.527.32z" fill="#000" fill-rule="nonzero"/></svg>