<?xml version="1.0" encoding="UTF-8"?>
<svg width="24px" height="24px" viewBox="0 0 24 24" version="1.1" xmlns="http://www.w3.org/2000/svg" xmlns:xlink="http://www.w3.org/1999/xlink">
    <!-- Generator: Sketch 50.2 (55047) - http://www.bohemiancoding.com/sketch -->
    <title>file-pdf</title>
    <desc>Created with Sketch.</desc>
    <defs></defs>
    <g id="file-pdf" stroke="none" stroke-width="1" fill="none" fill-rule="evenodd">
        <g transform="translate(5.000000, 3.000000)" fill="#000000" fill-rule="nonzero" id="Shape">
            <path d="M12.9789474,3.47017544 L10.0350877,0.526315789 C9.71929825,0.210526316 9.29122807,0.0315789474 8.84561404,0.0315789474 L1.68421053,0.0315789474 C0.754385965,0.0350877193 0,0.789473684 0,1.71929825 L0,16.3157895 C0,17.245614 0.754385965,18 1.68421053,18 L11.7894737,18 C12.7192982,18 13.4736842,17.245614 13.4736842,16.3157895 L13.4736842,4.66315789 C13.4736842,4.21754386 13.2947368,3.78596491 12.9789474,3.47017544 Z M12.1859649,4.26666667 C12.2596491,4.34035088 12.3087719,4.42807018 12.3333333,4.52631579 L8.98245614,4.52631579 L8.98245614,1.1754386 C9.08070175,1.2 9.16842105,1.24912281 9.24210526,1.32280702 L12.1859649,4.26666667 Z M11.7894737,16.877193 L1.68421053,16.877193 C1.3754386,16.877193 1.12280702,16.6245614 1.12280702,16.3157895 L1.12280702,1.71929825 C1.12280702,1.41052632 1.3754386,1.15789474 1.68421053,1.15789474 L7.85964912,1.15789474 L7.85964912,4.80701754 C7.85964912,5.27368421 8.23508772,5.64912281 8.70175439,5.64912281 L12.3508772,5.64912281 L12.3508772,16.3157895 C12.3508772,16.6245614 12.0982456,16.877193 11.7894737,16.877193 Z M11.0175439,10.8701754 C10.5438596,10.4035088 9.0877193,10.5473684 8.43157895,10.6350877 C7.6877193,10.1859649 7.19649123,9.56842105 6.84912281,8.64912281 C7,8.01754386 7.27017544,6.99298246 7.07368421,6.37192982 C6.91929825,5.38596491 5.68070175,5.50526316 5.50877193,6.13333333 C5.33333333,6.7754386 5.49824561,7.69122807 5.80350877,8.86315789 C5.38596491,9.85964912 4.76140351,11.2105263 4.32631579,11.9719298 C3.59649123,12.3473684 2.42807018,13 2.26315789,13.8105263 C2.14035088,14.4 3.06666667,15.1929825 4.12631579,14.0350877 C4.44561404,13.6877193 4.80350877,13.1649123 5.2245614,12.4385965 C6.16140351,12.1298246 7.19298246,11.7438596 8.10175439,11.5964912 C8.87017544,12.0175439 9.77192982,12.2947368 10.3684211,12.2947368 C11.3403509,12.2982456 11.3824561,11.2350877 11.0175439,10.8701754 Z M2.9754386,13.9929825 C3.18245614,13.4350877 3.97894737,12.7859649 4.22105263,12.5614035 C3.44561404,13.8 2.9754386,14.0175439 2.9754386,13.9929825 Z M6.31578947,6.19298246 C6.62105263,6.19298246 6.58947368,7.50877193 6.38947368,7.86315789 C6.20701754,7.29122807 6.21403509,6.19298246 6.31578947,6.19298246 Z M5.31929825,11.7824561 C5.71578947,11.0877193 6.05614035,10.2666667 6.32982456,9.54736842 C6.67017544,10.1684211 7.10526316,10.6596491 7.56140351,11.0035088 C6.70877193,11.1684211 5.96842105,11.5333333 5.31929825,11.7824561 Z M10.7017544,11.5754386 C10.7017544,11.5754386 10.4982456,11.8210526 9.1754386,11.2561404 C10.6140351,11.1508772 10.8491228,11.4807018 10.7017544,11.5754386 Z"></path>
        </g>
    </g>
</svg>