<?xml version="1.0" encoding="UTF-8"?>
<svg width="24px" height="24px" viewBox="0 0 24 24" version="1.1" xmlns="http://www.w3.org/2000/svg" xmlns:xlink="http://www.w3.org/1999/xlink">
    <!-- Generator: Sketch 50.2 (55047) - http://www.bohemiancoding.com/sketch -->
    <title>file-excel</title>
    <desc>Created with Sketch.</desc>
    <defs></defs>
    <g id="file-excel" stroke="none" stroke-width="1" fill="none" fill-rule="evenodd">
        <g transform="translate(5.000000, 3.000000)" fill="#000000" fill-rule="nonzero" id="Shape">
            <path d="M12.9789474,3.47017544 L10.0350877,0.526315789 C9.71929825,0.210526316 9.29122807,0.0315789474 8.84561404,0.0315789474 L1.68421053,0.0315789474 C0.754385965,0.0350877193 0,0.789473684 0,1.71929825 L0,16.3157895 C0,17.245614 0.754385965,18 1.68421053,18 L11.7894737,18 C12.7192982,18 13.4736842,17.245614 13.4736842,16.3157895 L13.4736842,4.66315789 C13.4736842,4.21754386 13.2947368,3.78596491 12.9789474,3.47017544 Z M12.1859649,4.26666667 C12.2596491,4.34035088 12.3087719,4.42807018 12.3333333,4.52631579 L8.98245614,4.52631579 L8.98245614,1.1754386 C9.08070175,1.2 9.16842105,1.24912281 9.24210526,1.32280702 L12.1859649,4.26666667 Z M11.7894737,16.877193 L1.68421053,16.877193 C1.3754386,16.877193 1.12280702,16.6245614 1.12280702,16.3157895 L1.12280702,1.71929825 C1.12280702,1.41052632 1.3754386,1.15789474 1.68421053,1.15789474 L7.85964912,1.15789474 L7.85964912,4.80701754 C7.85964912,5.27368421 8.23508772,5.64912281 8.70175439,5.64912281 L12.3508772,5.64912281 L12.3508772,16.3157895 C12.3508772,16.6245614 12.0982456,16.877193 11.7894737,16.877193 Z M7.42807018,10.8421053 L9.2,7.97192982 C9.36842105,7.69122807 9.16842105,7.33333333 8.83859649,7.33333333 L8.69473684,7.33333333 C8.55087719,7.33333333 8.41754386,7.40701754 8.34035088,7.52631579 C7.25263158,9.22807018 7.06315789,9.40350877 6.73684211,10.1403509 C6.13333333,9.01052632 6.44210526,9.57894737 5.12982456,7.52631579 C5.05263158,7.40701754 4.91929825,7.33333333 4.7754386,7.33333333 L4.63157895,7.33333333 C4.30175439,7.33333333 4.10175439,7.69473684 4.27368421,7.97192982 L6.07017544,10.8421053 L3.99649123,13.9824561 C3.81754386,14.2631579 4.01754386,14.6315789 4.35087719,14.6315789 L4.47368421,14.6315789 C4.61754386,14.6315789 4.75087719,14.5578947 4.82807018,14.4385965 C6.13333333,12.4035088 6.41754386,12.245614 6.73684211,11.5438596 C7.84210526,13.5333333 8.29122807,13.9017544 8.64561404,14.4421053 C8.72280702,14.5614035 8.85614035,14.6315789 8.99649123,14.6315789 L9.12280702,14.6315789 C9.45614035,14.6315789 9.65614035,14.2666667 9.47719298,13.9859649 L7.42807018,10.8421053 Z"></path>
        </g>
    </g>
</svg>