<?xml version="1.0" encoding="UTF-8"?>
<svg width="24px" height="24px" viewBox="0 0 24 24" version="1.1" xmlns="http://www.w3.org/2000/svg" xmlns:xlink="http://www.w3.org/1999/xlink">
    <!-- Generator: Sketch 50.2 (55047) - http://www.bohemiancoding.com/sketch -->
    <title>file-zip</title>
    <desc>Created with Sketch.</desc>
    <defs></defs>
    <g id="file-zip" stroke="none" stroke-width="1" fill="none" fill-rule="evenodd">
        <g id="file-archive" transform="translate(5.000000, 3.000000)" fill="#000000" fill-rule="nonzero">
            <path d="M13.0057383,3.44323828 L10.0567617,0.494261719 C9.74029588,0.177793543 9.31107537,2.34026863e-06 8.86352344,-5.32907052e-15 L1.6875,-5.32907052e-15 C0.755507812,-5.14172038e-15 0,0.755507812 0,1.6875 L0,16.3125 C0,17.2444922 0.755507812,18 1.6875,18 L11.8125,18 C12.7444922,18 13.5,17.2444922 13.5,16.3125 L13.5,4.63647656 C13.4999977,4.18892463 13.3222065,3.75970412 13.0057383,3.44323828 Z M9,1.14226172 C9.09890683,1.16666553 9.18925093,1.21766721 9.26124609,1.28974219 L12.2102227,4.23871875 C12.2822833,4.31072484 12.3332825,4.40106468 12.3577031,4.49996484 L9,4.49996484 L9,1.14226172 Z M12.375,16.3125 C12.375,16.6231758 12.1231406,16.875 11.8125,16.875 L1.6875,16.875 C1.37685937,16.875 1.125,16.6231758 1.125,16.3125 L1.125,1.6875 C1.125,1.37682422 1.37685937,1.125 1.6875,1.125 L4.48994531,1.125 L4.48994531,2.25 L5.61494531,2.25 L5.61494531,1.125 L7.875,1.125 L7.875,4.78125 C7.875,5.24724609 8.25275391,5.625 8.71875,5.625 L12.375,5.625 L12.375,16.3125 Z M6.75,3.375 L5.625,3.375 L5.625,2.25 L6.75,2.25 L6.75,3.375 Z M5.625,3.375 L5.625,4.5 L4.5,4.5 L4.5,3.375 L5.625,3.375 Z M5.625,5.625 L5.625,6.75 L4.5,6.75 L4.5,5.625 L5.625,5.625 Z M6.75,5.625 L5.625,5.625 L5.625,4.5 L6.75,4.5 L6.75,5.625 Z M6.40413281,9 L5.625,9 L5.625,7.875 L4.5,7.875 L4.5,9 L3.81624609,12.4186992 C3.58797656,13.5600469 4.46094141,14.625 5.625,14.625 C6.78898828,14.625 7.66202344,13.560082 7.43375391,12.4186992 L6.81785156,9.33915234 C6.77840322,9.1419464 6.60524561,8.99999776 6.40413281,9 Z M5.63449219,13.7135039 C5.0045625,13.7135039 4.49388281,13.2879375 4.49388281,12.7630195 C4.49388281,12.2380664 5.00452734,11.8125352 5.63449219,11.8125352 C6.26445703,11.8125352 6.77510156,12.2380664 6.77510156,12.7630195 C6.77510156,13.2879375 6.26442187,13.7135039 5.63449219,13.7135039 Z M6.75,7.875 L5.625,7.875 L5.625,6.75 L6.75,6.75 L6.75,7.875 Z" id="Shape"></path>
        </g>
    </g>
</svg>