<svg width="24" height="24" xmlns="http://www.w3.org/2000/svg"><path d="M17.98 6.437l-2.943-2.944A1.684 1.684 0 0 0 13.847 3H6.683C5.754 3 5 3.754 5 4.684v14.597c0 .93.754 1.684 1.684 1.684H16.79c.93 0 1.685-.754 1.685-1.684V7.627c0-.446-.178-.875-.494-1.19zm-.794.793a.558.558 0 0 1 .148.261h-3.352V4.14a.557.557 0 0 1 .261.147l2.943 2.943zm-.397 12.612H6.684a.561.561 0 0 1-.561-.561V4.684c0-.31.251-.561.561-.561h6.176v3.649c0 .465.377.842.842.842h3.649v10.667c0 .31-.251.561-.562.561zm-5.665-2.365l-.91-.264a.179.179 0 0 1-.122-.222l2.036-7.013a.179.179 0 0 1 .222-.122l.91.264a.179.179 0 0 1 .122.222l-2.036 7.013a.179.179 0 0 1-.222.122zm-1.7-1.673l.649-.692a.179.179 0 0 0-.013-.257l-1.35-1.188 1.35-1.19a.179.179 0 0 0 .013-.256l-.65-.692a.179.179 0 0 0-.252-.008l-2.15 2.015a.179.179 0 0 0 0 .261l2.15 2.015a.179.179 0 0 0 .253-.008zm4.879.008l2.15-2.015a.179.179 0 0 0 0-.26l-2.15-2.016a.179.179 0 0 0-.253.008l-.65.692a.179.179 0 0 0 .013.257l1.351 1.189-1.35 1.188a.179.179 0 0 0-.013.257l.649.692a.179.179 0 0 0 .253.008z" fill="#000" fill-rule="nonzero"/></svg>