<?xml version="1.0" encoding="UTF-8"?>
<svg width="24px" height="24px" viewBox="0 0 24 24" version="1.1" xmlns="http://www.w3.org/2000/svg" xmlns:xlink="http://www.w3.org/1999/xlink">
    <!-- Generator: Sketch 50.2 (55047) - http://www.bohemiancoding.com/sketch -->
    <title>file</title>
    <desc>Created with Sketch.</desc>
    <defs></defs>
    <g id="file" stroke="none" stroke-width="1" fill="none" fill-rule="evenodd">
        <g transform="translate(5.000000, 3.000000)" fill="#000000" fill-rule="nonzero" id="Shape">
            <path d="M12.9789474,3.47017544 L10.0350877,0.526315789 C9.71929825,0.210526316 9.29122807,0.0315789474 8.84561404,0.0315789474 L1.68421053,0.0315789474 C0.754385965,0.0350877193 0,0.789473684 0,1.71929825 L0,16.3157895 C0,17.245614 0.754385965,18 1.68421053,18 L11.7894737,18 C12.7192982,18 13.4736842,17.245614 13.4736842,16.3157895 L13.4736842,4.66315789 C13.4736842,4.21754386 13.2947368,3.78596491 12.9789474,3.47017544 Z M12.1859649,4.26666667 C12.2596491,4.34035088 12.3087719,4.42807018 12.3333333,4.52631579 L8.98245614,4.52631579 L8.98245614,1.1754386 C9.08070175,1.2 9.16842105,1.24912281 9.24210526,1.32280702 L12.1859649,4.26666667 Z M11.7894737,16.877193 L1.68421053,16.877193 C1.3754386,16.877193 1.12280702,16.6245614 1.12280702,16.3157895 L1.12280702,1.71929825 C1.12280702,1.41052632 1.3754386,1.15789474 1.68421053,1.15789474 L7.85964912,1.15789474 L7.85964912,4.80701754 C7.85964912,5.27368421 8.23508772,5.64912281 8.70175439,5.64912281 L12.3508772,5.64912281 L12.3508772,16.3157895 C12.3508772,16.6245614 12.0982456,16.877193 11.7894737,16.877193 Z"></path>
        </g>
    </g>
</svg>