<svg width="24" height="24" xmlns="http://www.w3.org/2000/svg"><path d="M17.979 6.47l-2.944-2.944a1.684 1.684 0 0 0-1.19-.494h-7.16A1.69 1.69 0 0 0 5 4.719v14.597C5 20.246 5.754 21 6.684 21H16.79c.93 0 1.685-.754 1.685-1.684V7.663c0-.445-.18-.877-.495-1.193zm-.793.797a.552.552 0 0 1 .147.26h-3.35V4.174a.552.552 0 0 1 .26.148l2.943 2.944zm-.397 12.61H6.684a.563.563 0 0 1-.561-.561V4.719c0-.308.252-.561.561-.561h6.176v3.649a.84.84 0 0 0 .842.842h3.649v10.667a.563.563 0 0 1-.562.561zm-1.684-8.561v.28c0 .232-.19.422-.42.422H8.788a.422.422 0 0 1-.42-.422v-.28c0-.232.189-.421.42-.421h5.895c.232 0 .421.19.421.42zm0 2.245v.281c0 .232-.19.421-.42.421H8.788a.422.422 0 0 1-.42-.42v-.282c0-.231.189-.42.42-.42h5.895c.232 0 .421.189.421.42zm0 2.246v.28c0 .232-.19.422-.42.422H8.788a.422.422 0 0 1-.42-.421v-.281c0-.232.189-.421.42-.421h5.895c.232 0 .421.19.421.421z" fill="#000" fill-rule="nonzero"/></svg>