<svg width="24" height="24" xmlns="http://www.w3.org/2000/svg"><path d="M21.073 4.683l-.097-.1A5.25 5.25 0 0 0 17.212 3a5.25 5.25 0 0 0-3.765 1.583l-1.121 1.15-1.121-1.146a5.255 5.255 0 0 0-7.53 0l-.096.096C1.622 6.684 1.538 9.871 3.286 12l8.522 8.779c.14.145.33.221.514.221a.7.7 0 0 0 .514-.221L21.366 12c1.748-2.13 1.663-5.316-.293-7.317zm-1.153 6.04l-7.594 7.822-7.594-7.823c-1.093-1.39-1-3.435.21-4.672l.112-.113A3.309 3.309 0 0 1 7.44 4.93c.904 0 1.752.357 2.387 1.008l1.044 1.069.812 2.423-3.037 1.414a.322.322 0 0 0-.093.506l3.488 3.56c.237.241.634.004.538-.317l-.896-2.913 3.078-2.106a.322.322 0 0 0 .116-.377l-.948-2.343.896-.916a3.309 3.309 0 0 1 2.387-1.008c.904 0 1.751.357 2.37.992l.109.112c1.23 1.254 1.322 3.3.229 4.69z" fill="#000" fill-rule="nonzero"/></svg>