<svg width="24" height="24" viewBox="0 0 24 24" xmlns="http://www.w3.org/2000/svg"><title>info</title><path d="M12 4.161c4.305 0 7.839 3.487 7.839 7.839A7.837 7.837 0 0 1 12 19.839 7.837 7.837 0 0 1 4.161 12 7.838 7.838 0 0 1 12 4.161zM12 3c-4.97 0-9 4.031-9 9a9 9 0 0 0 9 9 9 9 0 0 0 9-9c0-4.969-4.03-9-9-9zm-1.306 12.484h.435v-4.355h-.435a.436.436 0 0 1-.436-.435v-.29c0-.241.195-.436.436-.436h1.741c.241 0 .436.195.436.435v5.08h.435c.24 0 .436.196.436.436v.29a.436.436 0 0 1-.436.436h-2.612a.436.436 0 0 1-.436-.435v-.29c0-.241.195-.436.436-.436zM12 6.774a1.161 1.161 0 1 0 0 2.323 1.161 1.161 0 0 0 0-2.323z"/></svg>