<svg width="24" height="24" viewBox="0 0 24 24" xmlns="http://www.w3.org/2000/svg"><title>key</title><path d="M14.813 4.125a5.063 5.063 0 1 1-1.887 9.762l-1.489 1.488H9.75v2.25H7.5v2.25H4.125v-2.813l5.988-5.988a5.063 5.063 0 0 1 4.699-6.949zm0-1.125a6.187 6.187 0 0 0-5.984 7.768l-5.582 5.581a.844.844 0 0 0-.247.597v3.21c0 .466.378.844.844.844H7.78a.844.844 0 0 0 .844-.844V18.75h1.406a.844.844 0 0 0 .844-.844V16.5h.679a.844.844 0 0 0 .597-.247l1.081-1.082A6.187 6.187 0 1 0 14.812 3zM16.5 6.797a.704.704 0 1 1-.002 1.408.704.704 0 0 1 .002-1.408zm0-.984a1.687 1.687 0 1 0 0 3.374 1.687 1.687 0 0 0 0-3.374z"/></svg>