<svg width="24" height="24" viewBox="0 0 24 24" xmlns="http://www.w3.org/2000/svg"><title>locked</title><path d="M18.063 10.875h-.844V8.344A5.35 5.35 0 0 0 11.875 3a5.35 5.35 0 0 0-5.344 5.344v2.531h-.843c-.932 0-1.688.756-1.688 1.688v6.75C4 20.244 4.756 21 5.688 21h12.375c.931 0 1.687-.756 1.687-1.688v-6.75c0-.931-.756-1.687-1.688-1.687zm-4.782 5.906a1.406 1.406 0 1 1-2.812 0v-1.687a1.406 1.406 0 1 1 2.812 0v1.687zm1.125-5.906H9.344V8.344a2.534 2.534 0 0 1 2.531-2.531 2.534 2.534 0 0 1 2.531 2.53v2.532z"/></svg>