<svg width="24" height="24" viewBox="0 0 24 24" xmlns="http://www.w3.org/2000/svg"><title>locked</title><path d="M12.15 16.125a.627.627 0 0 1-.625-.625v-2c0-.344.281-.625.625-.625s.625.281.625.625v2a.627.627 0 0 1-.625.625zm7-4.625v6a1.5 1.5 0 0 1-1.5 1.5h-11a1.5 1.5 0 0 1-1.5-1.5v-6a1.5 1.5 0 0 1 1.5-1.5h.5V8c0-2.762 2.25-5.01 5.016-5 2.762.01 4.984 2.284 4.984 5.047V10h.5a1.5 1.5 0 0 1 1.5 1.5zm-11-1.5h8V8c0-2.206-1.794-4-4-4s-4 1.794-4 4v2zm10 7.5v-6c0-.275-.225-.5-.5-.5h-11c-.275 0-.5.225-.5.5v6c0 .275.225.5.5.5h11c.275 0 .5-.225.5-.5z"/></svg>