<svg width="24" height="24" viewBox="0 0 24 24" xmlns="http://www.w3.org/2000/svg"><title>mail-bulk</title><path d="M19.65 7.55h-9.9c-.744 0-1.35.606-1.35 1.35v.45h.9V8.9a.45.45 0 0 1 .45-.45h9.9a.45.45 0 0 1 .45.45v6.3a.45.45 0 0 1-.45.45H14.7v.9h4.95c.744 0 1.35-.606 1.35-1.35V8.9c0-.744-.606-1.35-1.35-1.35zM5.7 6.2a.45.45 0 0 1 .45-.45h8.1a.45.45 0 0 1 .45.45v.45h.9V6.2c0-.744-.606-1.35-1.35-1.35h-8.1c-.744 0-1.35.606-1.35 1.35v3.15h.9V6.2zm13.05 5.85a.45.45 0 0 0 .45-.45V9.8a.45.45 0 0 0-.45-.45h-1.8a.45.45 0 0 0-.45.45v1.8c0 .249.201.45.45.45h1.8zm-1.35-1.8h.9v.9h-.9v-.9zm-4.95 0h-8.1c-.744 0-1.35.606-1.35 1.35v6.3c0 .744.606 1.35 1.35 1.35h8.1c.744 0 1.35-.606 1.35-1.35v-6.3c0-.744-.606-1.35-1.35-1.35zm.45 7.65a.45.45 0 0 1-.45.45h-8.1a.45.45 0 0 1-.45-.45v-4.23c.36.27.9.72 2.7 1.98.36.27 1.08.9 1.8.9s1.44-.63 1.8-.9c1.8-1.26 2.34-1.71 2.7-1.98v4.23zm0-5.31c-.72.54-.63.54-3.24 2.43-.27.09-.81.63-1.26.63-.45 0-.99-.54-1.26-.72-2.61-1.89-2.52-1.89-3.24-2.43v-.9a.45.45 0 0 1 .45-.45h8.1a.45.45 0 0 1 .45.45v.99z"/></svg>