<svg width="18" height="18" viewBox="0 0 18 18" xmlns="http://www.w3.org/2000/svg"><title>paperclip</title><path d="M5.239 18a4.527 4.527 0 0 1-3.211-1.328 4.546 4.546 0 0 1 0-6.422l9.213-9.213a3.55 3.55 0 0 1 5.016 0 3.55 3.55 0 0 1 0 5.015L8.43 13.88a2.555 2.555 0 0 1-3.609 0 2.555 2.555 0 0 1 0-3.609l5.987-5.987a.422.422 0 0 1 .597 0l.199.2a.422.422 0 0 1 0 .596l-5.987 5.987a1.428 1.428 0 0 0 0 2.017 1.428 1.428 0 0 0 2.017 0l7.827-7.826a2.424 2.424 0 0 0 0-3.424 2.424 2.424 0 0 0-3.424 0l-9.213 9.213a3.42 3.42 0 0 0 0 4.83 3.42 3.42 0 0 0 4.83 0l7.655-7.654a.422.422 0 0 1 .597 0l.199.199a.422.422 0 0 1 0 .596L8.45 16.672A4.527 4.527 0 0 1 5.239 18z"/></svg>