<svg width="24" height="24" viewBox="0 0 24 24" xmlns="http://www.w3.org/2000/svg"><title>print</title><path d="M16.688 9.875V6.649a.703.703 0 0 0-.206-.498l-1.699-1.696a.703.703 0 0 0-.498-.205h-6.27a.705.705 0 0 0-.703.703v4.922A2.813 2.813 0 0 0 4.5 12.688v3.984c0 .387.316.703.703.703h2.11v1.172c0 .387.316.703.703.703h7.968a.705.705 0 0 0 .704-.703v-1.172h2.109a.705.705 0 0 0 .703-.703v-3.985a2.813 2.813 0 0 0-2.813-2.812zM8.25 5.187h5.941l1.559 1.56v5.003h-7.5V5.187zm7.5 13.125h-7.5V15.5h7.5v2.813zm2.813-1.875h-1.875v-1.171a.705.705 0 0 0-.704-.704H8.016a.705.705 0 0 0-.704.704v1.171H5.438v-3.75c0-1.034.841-1.874 1.875-1.874v1.171c0 .387.317.704.704.704h7.968a.705.705 0 0 0 .704-.704v-1.171c1.034 0 1.875.84 1.875 1.874v3.75z"/></svg>