<svg width="24" height="24" viewBox="0 0 24 24" xmlns="http://www.w3.org/2000/svg"><title>question-solid</title><path d="M12.002 3C9.196 3 7.38 4.15 5.952 6.2a.845.845 0 0 0 .182 1.156l1.516 1.15a.844.844 0 0 0 1.17-.146c.88-1.103 1.533-1.738 2.909-1.738 1.081 0 2.42.696 2.42 1.744 0 .793-.655 1.2-1.723 1.8-1.246.697-2.894 1.566-2.894 3.74v.344c0 .466.378.844.844.844h2.548a.844.844 0 0 0 .844-.844v-.203c0-1.507 4.404-1.57 4.404-5.647 0-3.07-3.186-5.4-6.17-5.4zm-.352 13.13a2.438 2.438 0 0 0-2.435 2.435A2.438 2.438 0 0 0 11.65 21a2.438 2.438 0 0 0 2.435-2.435 2.438 2.438 0 0 0-2.435-2.436z"/></svg>