<svg width="24" height="24" viewBox="0 0 24 24" xmlns="http://www.w3.org/2000/svg"><title>repeat</title><path d="M21 11.992a5.631 5.631 0 0 1-5.625 5.625H6.889l2.398 2.397a.422.422 0 0 1 0 .597l-.199.199a.422.422 0 0 1-.597 0l-3.457-3.457a.422.422 0 0 1 0-.597l3.457-3.457a.422.422 0 0 1 .597 0l.199.198a.422.422 0 0 1 0 .597l-2.398 2.398h8.486c2.481 0 4.5-2.019 4.5-4.5 0-1.004-.33-1.932-.888-2.682a.422.422 0 0 1 .038-.551l.201-.2a.422.422 0 0 1 .636.044A5.596 5.596 0 0 1 21 11.992zM5.013 14.673a4.476 4.476 0 0 1-.888-2.681c0-2.482 2.019-4.5 4.5-4.5h8.486l-2.398 2.397a.422.422 0 0 0 0 .597l.199.199a.422.422 0 0 0 .597 0l3.457-3.457a.422.422 0 0 0 0-.597l-3.457-3.457a.422.422 0 0 0-.597 0l-.199.198a.422.422 0 0 0 0 .597l2.398 2.398H8.625A5.631 5.631 0 0 0 3 11.992c0 1.271.424 2.445 1.138 3.388a.422.422 0 0 0 .636.045l.2-.2a.422.422 0 0 0 .04-.552z"/></svg>