<svg width="24" height="24" viewBox="0 0 24 24" xmlns="http://www.w3.org/2000/svg"><title>thumbtack</title><path d="M14.826 10.17l-.355-2.67h1.312c.464 0 .844-.38.844-.843V3.844A.846.846 0 0 0 15.783 3H6.219a.846.846 0 0 0-.844.844v2.813c0 .464.38.844.844.844H7.53l-.355 2.668c-1.698.97-2.925 2.62-2.925 4.617 0 .31.253.562.563.562h5.625v4.248c0 .024.004.045.007.067l.282 1.125c.07.281.474.285.545 0l.28-1.125c.008-.022.008-.046.008-.067v-4.248h5.626a.564.564 0 0 0 .562-.562c.004-1.997-1.223-3.646-2.922-4.617zm-9.405 4.053c.239-1.508 1.392-2.686 2.795-3.322l.535-4.526H6.5v-2.25h9v2.25h-2.25l.538 4.53c1.406.639 2.556 1.82 2.795 3.322H5.421v-.004z"/></svg>