<svg width="24" height="24" viewBox="0 0 24 24" xmlns="http://www.w3.org/2000/svg"><title>trash-alt</title><path d="M14.556 18.188h.563a.281.281 0 0 0 .281-.282V8.344a.281.281 0 0 0-.281-.281h-.563a.281.281 0 0 0-.281.28v9.563c0 .156.126.282.281.282zm-5.625 0h.563a.281.281 0 0 0 .281-.282V8.344a.281.281 0 0 0-.281-.281H8.93a.281.281 0 0 0-.281.28v9.563c0 .156.126.282.281.282zM19.62 5.25h-3.656L14.78 3.675A1.688 1.688 0 0 0 13.431 3H10.62c-.531 0-1.032.25-1.35.675L8.088 5.25H4.43a.281.281 0 0 0-.281.281v.563c0 .155.126.281.281.281h.844v12.938c0 .931.756 1.687 1.688 1.687h10.124c.932 0 1.688-.756 1.688-1.688V6.376h.844a.281.281 0 0 0 .281-.281V5.53a.281.281 0 0 0-.281-.281zm-9.45-.9a.566.566 0 0 1 .45-.225h2.812c.177 0 .344.084.45.225l.675.9H9.494l.675-.9zm7.481 14.963c0 .31-.252.562-.563.562H6.963a.562.562 0 0 1-.563-.563V6.376h11.25v12.938zm-5.906-1.125h.562a.281.281 0 0 0 .282-.282V8.344a.281.281 0 0 0-.282-.281h-.562a.281.281 0 0 0-.281.28v9.563a.28.28 0 0 0 .28.282z"/></svg>