<svg width="24" height="24" xmlns="http://www.w3.org/2000/svg"><path d="M13.69 16.674a.422.422 0 0 1 0 .596l-2.287 2.287a4.92 4.92 0 0 1-6.96 0 4.92 4.92 0 0 1 0-6.96L6.73 10.31a.422.422 0 0 1 .596 0l.796.795a.422.422 0 0 1 0 .597l-2.26 2.26c-1.208 1.208-1.177 3.104.02 4.25a2.953 2.953 0 0 0 4.13-.047l2.286-2.287a.422.422 0 0 1 .597 0l.795.796zm-1.988-8.552l2.26-2.26c1.208-1.208 3.104-1.177 4.25.02a2.953 2.953 0 0 1-.047 4.13l-2.287 2.286a.422.422 0 0 0 0 .597l.796.795a.422.422 0 0 0 .596 0l2.287-2.287a4.92 4.92 0 0 0 0-6.96 4.92 4.92 0 0 0-6.96 0L10.31 6.73a.422.422 0 0 0 0 .597l.795.795a.422.422 0 0 0 .597 0zm8.379 12.754l.795-.795a.422.422 0 0 0 0-.597L4.516 3.124a.422.422 0 0 0-.597 0l-.795.795a.422.422 0 0 0 0 .597l16.36 16.36a.422.422 0 0 0 .597 0z" fill="#000" fill-rule="nonzero"/></svg>