<svg width="24" height="24" viewBox="0 0 24 24" xmlns="http://www.w3.org/2000/svg"><title>unlocked</title><path d="M9.384 16.528a.564.564 0 0 1-.562-.562v-1.8c0-.31.253-.563.562-.563.31 0 .563.253.563.563v1.8c0 .31-.253.562-.563.562zM16.514 4.8A4.504 4.504 0 0 0 12 9.3v1.8H4.35A1.35 1.35 0 0 0 3 12.45v5.4c0 .745.605 1.35 1.35 1.35h9.9a1.35 1.35 0 0 0 1.35-1.35v-5.4a1.35 1.35 0 0 0-1.35-1.35H12.9V9.34c0-1.989 1.595-3.629 3.58-3.64a3.604 3.604 0 0 1 3.62 3.6v2.363c0 .185.152.337.337.337h.226a.338.338 0 0 0 .337-.337v-2.32c0-2.487-2-4.535-4.486-4.543zM14.25 12c.248 0 .45.203.45.45v5.4a.45.45 0 0 1-.45.45h-9.9a.451.451 0 0 1-.45-.45v-5.4c0-.247.203-.45.45-.45h9.9z"/></svg>