<svg width="24" height="24" viewBox="0 0 24 24" xmlns="http://www.w3.org/2000/svg"><title>warning</title><path d="M20.797 17.75A1.5 1.5 0 0 1 19.498 20H4.502a1.5 1.5 0 0 1-1.3-2.25l7.499-13a1.5 1.5 0 0 1 2.598 0l7.498 13zm-.864.5l-7.5-13a.5.5 0 0 0-.866 0l-7.5 13A.5.5 0 0 0 4.5 19h15a.5.5 0 0 0 .433-.75zM12 15.625a.875.875 0 1 0 0 1.75.875.875 0 0 0 0-1.75zM11.64 9h.719c.213 0 .384.178.375.39l-.219 5.25a.375.375 0 0 1-.375.36h-.28a.375.375 0 0 1-.375-.36l-.219-5.25a.375.375 0 0 1 .375-.39zm.36 6.625a.875.875 0 1 0 0 1.75.875.875 0 0 0 0-1.75z"/></svg>